<svg width="121" height="33" viewBox="0 0 121 33" fill="none" xmlns="http://www.w3.org/2000/svg">
<g clip-path="url(#clip0_61_2083)">
<mask id="mask0_61_2083" style="mask-type:luminance" maskUnits="userSpaceOnUse" x="0" y="1" width="30" height="31">
<path d="M30 1.5H0V31.5H30V1.5Z" fill="white"/>
</mask>
<g mask="url(#mask0_61_2083)">
<path d="M19.071 31.5C14.9991 31.5 14.9991 26.6135 10.9273 26.6135C6.24072 26.6135 0 25.2579 0 20.57C0 16.4983 4.88517 16.4983 4.88517 12.4267C4.88517 7.74208 6.24072 1.5 10.929 1.5C15.0009 1.5 15.0009 6.38661 19.0727 6.38661C23.7576 6.38661 30 7.74209 30 12.4301C30 16.5018 25.1132 16.5018 25.1132 20.5734C25.1114 25.2666 23.7576 31.5 19.071 31.5Z" fill="url(#paint0_linear_61_2083)"/>
</g>
</g>
<path d="M40.016 8.2H50.024V10.984H43.16V15.592H49.544V18.232H43.16V25H40.016V8.2ZM52.8776 7.72H55.8536V25H52.8776V7.72ZM61.0453 10.576C60.5333 10.576 60.1093 10.432 59.7733 10.144C59.4533 9.84 59.2933 9.456 59.2933 8.992C59.2933 8.528 59.4533 8.144 59.7733 7.84C60.1093 7.52 60.5333 7.36 61.0453 7.36C61.5733 7.36 62.0053 7.52 62.3413 7.84C62.6773 8.144 62.8453 8.528 62.8453 8.992C62.8453 9.456 62.6773 9.84 62.3413 10.144C62.0053 10.432 61.5733 10.576 61.0453 10.576ZM59.5813 12.52H62.5573V25H59.5813V12.52ZM73.3889 25.216C72.4769 25.216 71.6449 25.056 70.8929 24.736C70.1409 24.4 69.5009 23.936 68.9729 23.344C68.9409 23.616 68.8929 23.912 68.8289 24.232C68.7649 24.536 68.6929 24.792 68.6129 25H66.2609V7.72H69.2369V13.936C69.7489 13.424 70.3569 13.024 71.0609 12.736C71.7649 12.448 72.5409 12.304 73.3889 12.304H73.5089C74.3729 12.304 75.1649 12.456 75.8849 12.76C76.6209 13.064 77.2529 13.496 77.7809 14.056C78.3249 14.6 78.7409 15.248 79.0289 16C79.3329 16.736 79.4849 17.552 79.4849 18.448V19.072C79.4849 19.952 79.3329 20.768 79.0289 21.52C78.7409 22.272 78.3249 22.928 77.7809 23.488C77.2529 24.032 76.6209 24.456 75.8849 24.76C75.1649 25.064 74.3729 25.216 73.5089 25.216H73.3889ZM72.9089 22.84C73.4209 22.84 73.8929 22.744 74.3249 22.552C74.7569 22.36 75.1249 22.096 75.4289 21.76C75.7329 21.424 75.9649 21.024 76.1249 20.56C76.3009 20.096 76.3889 19.584 76.3889 19.024V18.496C76.3889 17.936 76.3009 17.424 76.1249 16.96C75.9649 16.496 75.7329 16.096 75.4289 15.76C75.1249 15.424 74.7569 15.16 74.3249 14.968C73.8929 14.776 73.4209 14.68 72.9089 14.68H72.7169C72.2049 14.68 71.7329 14.776 71.3009 14.968C70.8689 15.16 70.5009 15.424 70.1969 15.76C69.8929 16.096 69.6529 16.496 69.4769 16.96C69.3169 17.424 69.2369 17.936 69.2369 18.496V19.024C69.2369 19.584 69.3169 20.096 69.4769 20.56C69.6529 21.024 69.8929 21.424 70.1969 21.76C70.5009 22.096 70.8689 22.36 71.3009 22.552C71.7329 22.744 72.2049 22.84 72.7169 22.84H72.9089ZM89.4671 25.216C88.5551 25.216 87.7231 25.056 86.9711 24.736C86.2191 24.4 85.5791 23.936 85.0511 23.344C85.0191 23.616 84.9711 23.912 84.9071 24.232C84.8431 24.536 84.7711 24.792 84.6911 25H82.3391V7.72H85.3151V13.936C85.8271 13.424 86.4351 13.024 87.1391 12.736C87.8431 12.448 88.6191 12.304 89.4671 12.304H89.5871C90.4511 12.304 91.2431 12.456 91.9631 12.76C92.6991 13.064 93.3311 13.496 93.8591 14.056C94.4031 14.6 94.8191 15.248 95.1071 16C95.4111 16.736 95.5631 17.552 95.5631 18.448V19.072C95.5631 19.952 95.4111 20.768 95.1071 21.52C94.8191 22.272 94.4031 22.928 93.8591 23.488C93.3311 24.032 92.6991 24.456 91.9631 24.76C91.2431 25.064 90.4511 25.216 89.5871 25.216H89.4671ZM88.9871 22.84C89.4991 22.84 89.9711 22.744 90.4031 22.552C90.8351 22.36 91.2031 22.096 91.5071 21.76C91.8111 21.424 92.0431 21.024 92.2031 20.56C92.3791 20.096 92.4671 19.584 92.4671 19.024V18.496C92.4671 17.936 92.3791 17.424 92.2031 16.96C92.0431 16.496 91.8111 16.096 91.5071 15.76C91.2031 15.424 90.8351 15.16 90.4031 14.968C89.9711 14.776 89.4991 14.68 88.9871 14.68H88.7951C88.2831 14.68 87.8111 14.776 87.3791 14.968C86.9471 15.16 86.5791 15.424 86.2751 15.76C85.9711 16.096 85.7311 16.496 85.5551 16.96C85.3951 17.424 85.3151 17.936 85.3151 18.496V19.024C85.3151 19.584 85.3951 20.096 85.5551 20.56C85.7311 21.024 85.9711 21.424 86.2751 21.76C86.5791 22.096 86.9471 22.36 87.3791 22.552C87.8111 22.744 88.2831 22.84 88.7951 22.84H88.9871ZM104.105 25.216C103.161 25.216 102.289 25.064 101.489 24.76C100.705 24.456 100.025 24.032 99.4492 23.488C98.8892 22.944 98.4492 22.288 98.1292 21.52C97.8252 20.752 97.6732 19.912 97.6732 19V18.664C97.6732 17.752 97.8332 16.904 98.1532 16.12C98.4732 15.336 98.9132 14.664 99.4732 14.104C100.049 13.544 100.729 13.104 101.513 12.784C102.297 12.464 103.145 12.304 104.057 12.304H104.201C105.065 12.304 105.857 12.448 106.577 12.736C107.313 13.024 107.945 13.424 108.473 13.936C109.001 14.432 109.409 15.032 109.697 15.736C110.001 16.44 110.153 17.216 110.153 18.064V19.672H100.625V19.696C100.737 20.608 101.121 21.344 101.777 21.904C102.449 22.448 103.289 22.72 104.297 22.72H104.417C105.185 22.72 105.889 22.568 106.529 22.264C107.185 21.96 107.697 21.576 108.065 21.112L109.721 22.912C109.129 23.632 108.337 24.2 107.345 24.616C106.369 25.016 105.361 25.216 104.321 25.216H104.105ZM107.321 17.68C107.257 16.784 106.929 16.056 106.337 15.496C105.745 14.92 104.993 14.632 104.081 14.632H104.057C103.193 14.632 102.457 14.912 101.849 15.472C101.257 16.016 100.873 16.752 100.697 17.68H107.321ZM113.066 12.52H115.418C115.498 12.76 115.57 13.048 115.634 13.384C115.714 13.72 115.762 14.024 115.778 14.296C116.258 13.736 116.842 13.304 117.53 13C118.234 12.68 119.018 12.52 119.882 12.52H120.17V15.4C119.93 15.304 119.666 15.256 119.378 15.256C118.29 15.256 117.458 15.536 116.882 16.096C116.322 16.656 116.042 17.416 116.042 18.376V25H113.066V12.52Z" fill="#222222"/>
<defs>
<linearGradient id="paint0_linear_61_2083" x1="15" y1="-3" x2="15" y2="35.7" gradientUnits="userSpaceOnUse">
<stop stop-color="#F1EBFA"/>
<stop offset="1" stop-color="#7332CD"/>
</linearGradient>
<clipPath id="clip0_61_2083">
<rect width="30" height="30" fill="white" transform="translate(0 1.5)"/>
</clipPath>
</defs>
</svg>
